<?xml version="1.0" encoding="utf-8"?>
<!-- Generator: Adobe Illustrator 23.0.3, SVG Export Plug-In . SVG Version: 6.00 Build 0)  -->
<svg version="1.1" id="Layer_1" xmlns="http://www.w3.org/2000/svg" xmlns:xlink="http://www.w3.org/1999/xlink" x="0px" y="0px"
	 viewBox="0 0 355 355" style="enable-background:new 0 0 355 355;" xml:space="preserve">
<style type="text/css">
	.st0{clip-path:url(#SVGID_2_);fill:url(#SVGID_3_);}
	.st1{fill-rule:evenodd;clip-rule:evenodd;fill:#FFFFFF;}
</style>
<g>
	<g>
		<defs>
			<path id="SVGID_1_" d="M72.17,2.54c-40.11,0-72.63,32.52-72.63,72.63v210.66c0,40.11,32.52,72.63,72.63,72.63h210.66
				c40.11,0,72.63-32.52,72.63-72.63V75.17c0-40.11-32.52-72.63-72.63-72.63H72.17z"/>
		</defs>
		<clipPath id="SVGID_2_">
			<use xlink:href="#SVGID_1_"  style="overflow:visible;"/>
		</clipPath>
		
			<linearGradient id="SVGID_3_" gradientUnits="userSpaceOnUse" x1="-1113.1238" y1="981.9944" x2="-1112.1238" y2="981.9944" gradientTransform="matrix(0 355.9272 355.9272 0 -349340.9688 396193.5313)">
			<stop  offset="0" style="stop-color:#FAA73D"/>
			<stop  offset="1" style="stop-color:#D41A59"/>
		</linearGradient>
		<rect x="-0.46" y="2.54" class="st0" width="355.93" height="355.93"/>
	</g>
	<path class="st1" d="M216.02,333.31c-2.54-2.09-39.81-32.57-76.12-52.12c-2.69-1.45-3.01-1.19-3.55-0.77
		c-3.05,2.39-7.36,5.76-19.82,5.03c-12.01-0.7-28.72-4.11-44.48-8.43c-16.98-4.65-33.01-10.42-41-15.06l-2.53-1.47l-0.17-2.93
		c-0.48-8.32,2-22.46,5.56-35.9c3.75-14.13,8.78-27.84,12.92-33.54l1.87-2.58l3.16,0.36c18.56,2.1,42.12,10.02,61.09,22.69
		c15.72,10.5,28.42,24.33,32.94,40.99c0.56,2.07,0.82,3.55,0.94,4.64c0.77,0.47,1.82,1.11,3.37,2.12
		c8.76,5.7,26.43,17.63,44.51,32.32c11.42,9.28,22.93,19.61,32.36,30.1c3.26,2.7,3.92,6.37,3.07,9.6c-0.33,1.27-0.93,2.47-1.7,3.49
		c-0.8,1.06-1.83,1.95-2.99,2.58C222.52,336,219.06,336.02,216.02,333.31L216.02,333.31z M145.09,271.58
		c14.62,7.87,28.82,18.85,41.5,27.71c34.57,24.17,19.24,11.41,2.01-2.59c-17.49-14.21-35.73-25.57-44.4-31.22
		c-1.43-0.93-2.62-1.64-3.46-2.15c-1.82-1.09-2.63-1.58-3.57-2.98c-1.04-1.55-1.08-2.39-1.15-3.91c-0.03-0.65-0.08-1.74-0.69-3.99
		c-3.75-13.82-14.75-25.61-28.46-34.76c-16.33-10.91-36.34-17.99-52.83-20.45c-3.06,5.76-6.65,16.23-9.56,27.22
		c-2.89,10.91-5.03,22.1-5.26,29.48c7.9,3.94,21.36,8.62,35.71,12.55c15.03,4.12,30.92,7.36,42.25,8.03
		c8.35,0.49,10.76-1.39,12.46-2.72C133.66,268.65,136.1,266.74,145.09,271.58"/>
	<path class="st1" d="M56.65,249.7c-1.92-0.6-2.98-2.64-2.38-4.56c0.6-1.92,2.64-2.98,4.56-2.38c0.11,0.04,39.35,12.42,49.17,14.6
		c1.97,0.44,3.21,2.39,2.78,4.36c-0.44,1.97-2.39,3.21-4.35,2.77C96.67,262.33,56.76,249.73,56.65,249.7"/>
	<path class="st1" d="M60.55,232.48c-1.91-0.63-2.96-2.69-2.33-4.61c0.63-1.92,2.69-2.96,4.61-2.33c3.78,1.24,11.78,4.27,20.47,7.65
		c10.29,4.01,21.64,8.57,27.96,11.23c1.85,0.78,2.72,2.92,1.94,4.77c-0.78,1.85-2.92,2.72-4.77,1.94
		c-6.14-2.58-17.41-7.11-27.77-11.15C72.18,236.68,64.34,233.72,60.55,232.48"/>
	<path class="st1" d="M64.55,217.73c-1.93-0.56-3.04-2.59-2.47-4.52c0.56-1.93,2.58-3.04,4.51-2.47c5.38,1.58,14.1,4.92,23.02,8.8
		c8,3.48,16.27,7.44,22.56,11.01c1.75,1,2.36,3.22,1.36,4.97c-1,1.75-3.22,2.36-4.97,1.36c-6-3.4-14.02-7.24-21.86-10.65
		C77.96,222.43,69.57,219.2,64.55,217.73"/>
	<path class="st1" d="M138.98,333.31c1.72-1.42,19.37-15.85,41.86-31.09l-8.57-5.65c-1.3,0.93-2.59,1.84-3.86,2.73
		c-34.57,24.17-19.24,11.41-2.01-2.59c0.91-0.74,1.83-1.48,2.74-2.2l-8.85-5.84c-11.42,9.27-22.93,19.61-32.35,30.09
		c-3.27,2.7-3.92,6.37-3.07,9.6c0.34,1.27,0.93,2.47,1.7,3.49c0.81,1.06,1.83,1.95,2.99,2.58
		C132.48,336,135.94,336.02,138.98,333.31L138.98,333.31z M193.3,294.03l-8.49-6.43c8.07-5.71,16.51-11.39,25.09-16.02
		c8.99-4.84,11.43-2.93,15.46,0.22c1.7,1.33,4.1,3.21,12.46,2.72c11.33-0.67,27.21-3.91,42.25-8.03
		c14.34-3.93,27.81-8.61,35.71-12.55c-0.22-7.38-2.37-18.56-5.26-29.48c-2.91-10.99-6.5-21.46-9.56-27.22
		c-16.49,2.46-36.5,9.54-52.83,20.45c-13.71,9.16-24.71,20.94-28.46,34.76c-0.61,2.25-0.66,3.35-0.69,3.99
		c-0.07,1.51-0.11,2.35-1.15,3.9c-0.93,1.4-1.74,1.89-3.57,2.99c-0.84,0.51-2.04,1.22-3.46,2.15c-6.16,4.01-17.13,10.9-29.24,19.64
		l-8.52-6.46c13.25-10.03,25.09-17.99,31.77-22.33c1.55-1.01,2.59-1.65,3.37-2.12c0.13-1.09,0.38-2.57,0.94-4.64
		c4.52-16.66,17.22-30.49,32.94-40.99c18.97-12.67,42.53-20.58,61.09-22.68l3.16-0.36l1.87,2.58c4.13,5.7,9.17,19.4,12.92,33.54
		c3.56,13.43,6.04,27.58,5.56,35.9l-0.17,2.93l-2.53,1.47c-7.99,4.64-24.01,10.4-40.99,15.06c-15.77,4.32-32.48,7.73-44.48,8.43
		c-12.46,0.73-16.77-2.64-19.82-5.03c-0.54-0.42-0.86-0.67-3.55,0.77C207.78,285.13,200.41,289.52,193.3,294.03"/>
	<path class="st1" d="M298.35,249.7c1.91-0.6,2.98-2.64,2.38-4.56c-0.6-1.92-2.64-2.98-4.56-2.38c-0.11,0.04-39.35,12.42-49.17,14.6
		c-1.97,0.44-3.21,2.39-2.77,4.36c0.43,1.97,2.39,3.21,4.36,2.77C258.33,262.33,298.24,249.73,298.35,249.7"/>
	<path class="st1" d="M294.45,232.48c1.91-0.63,2.96-2.69,2.33-4.61c-0.63-1.92-2.69-2.96-4.61-2.33
		c-3.78,1.24-11.78,4.27-20.47,7.65c-10.3,4.01-21.64,8.57-27.96,11.23c-1.85,0.78-2.72,2.92-1.94,4.77
		c0.78,1.85,2.91,2.72,4.77,1.94c6.14-2.58,17.4-7.11,27.77-11.15C282.82,236.68,290.66,233.72,294.45,232.48"/>
	<path class="st1" d="M290.45,217.73c1.93-0.56,3.04-2.59,2.47-4.52c-0.56-1.93-2.59-3.04-4.52-2.47c-5.38,1.58-14.1,4.92-23.02,8.8
		c-8,3.48-16.27,7.44-22.56,11.01c-1.75,1-2.35,3.22-1.36,4.97c1,1.75,3.22,2.36,4.97,1.36c6-3.4,14.02-7.24,21.86-10.65
		C277.04,222.43,285.43,219.2,290.45,217.73"/>
	<path class="st1" d="M123.27,185.06c0,0,22.63,0.9,34.71-10.18c12.08-11.08,30.72-3.7,25.01,11.91
		C177.29,202.4,151.54,200.36,123.27,185.06"/>
	<path class="st1" d="M241.96,185.06c0,0-22.63,0.9-34.71-10.18c-12.08-11.08-30.71-3.7-25.01,11.91
		C187.93,202.4,213.68,200.36,241.96,185.06"/>
	<path class="st1" d="M98.29,149.46c8.66,0.7,17.09,9.49,18.86,11.79c14.44-5.76,58.26-22.53,112.64,0.02l15.72-24.2l11.2,2.52
		l-3.25,3.98l-20.56,30.38c-40.69-16.57-77.34-17.11-121.16,0C108.15,163.76,104.85,158.48,98.29,149.46"/>
	<path class="st1" d="M193.88,95.01l1.27-4.97c6.42,4.49,5.79,18.99-2.57,26.84c-5.23,4.9-11.7,8.28-18.75,10.14
		c-8.73,2.3-18.39,2.26-27.64-0.07c-17.02-4.3-19.72-16.86-18.97-21.64l4.04,3.17c5.22,4.11,11.24,6.96,17.48,8.53
		c7.57,1.91,15.41,1.95,22.48,0.09c6.85-1.81,12.94-5.41,17.21-10.84C190.89,103.13,192.77,99.38,193.88,95.01"/>
	<path class="st1" d="M235.27,107.13l3.02-4.14c2.31,6.76-2.46,19.21-10.74,23.13c-10.38,4.92-25.34,6.49-43.51-7.16l-4.12-3.07
		l10.26-5.16C217.84,131.51,235.22,107.2,235.27,107.13"/>
	<path class="st1" d="M241.01,73.84l-5.05,0.92l-1.83-10.09l5.04-0.92c4.65-0.84,18.76,1.2,31.04,8.7
		c7.85,4.79,15.18,11.79,19.34,21.68c1.54,3.66,2.49,7.35,2.92,10.99c1.09,9.2-1.15,17.94-5.46,25.13
		c-4.32,7.2-10.75,12.88-18.01,15.93c-2.74,1.15-5.63,1.94-8.59,2.29c-9.01,1.07-16.68-1.21-22.98-5.05
		c-8.38-5.12-14.23-12.99-17.52-19.22l-2.4-4.54l9.08-4.79l2.39,4.54c2.64,5.01,7.27,11.29,13.77,15.25
		c4.53,2.77,10.02,4.41,16.44,3.65c1.96-0.24,3.93-0.77,5.84-1.58c5.26-2.21,9.96-6.4,13.17-11.74c3.22-5.36,4.89-11.86,4.09-18.66
		c-0.32-2.69-1.04-5.45-2.21-8.24c-3.2-7.59-8.99-13.07-15.22-16.87C254.86,75.08,244.28,73.25,241.01,73.84"/>
	<path class="st1" d="M234.68,84.6l0.91-5.05c0.01-0.03,1.74-9.38-4.52-20.04c-5.54-9.44-15.55-16.68-26.8-20.58
		c-11.25-3.9-23.63-4.43-33.92-0.47c-6.91,2.66-12.81,6.97-17.42,12.04c-5.03,5.53-8.47,11.91-9.96,17.99l-1.23,4.97
		c-5.43-4.09-8.35-16.71,3.59-29.86c5.61-6.17,12.84-11.43,21.36-14.71c12.61-4.86,27.53-4.29,40.94,0.36
		c13.43,4.66,25.46,13.46,32.28,25.06C250.23,71.9,241.75,81.74,234.68,84.6"/>
	<path class="st1" d="M92.8,112.07l0.94,5.04c-20.13-10.62-8.05-42.86,3.32-54.25c20.88-20.9,46.8-10.89,46.88-10.86l4.8,1.8
		l-8.39,7.8c-0.06-0.02-19.86-7.67-36,8.49C87.76,86.7,92.78,112,92.8,112.07"/>
	<path class="st1" d="M149.08,117.67l7.57,8.61l-4.96,1.3c-0.09,0.03-33.55,8.84-47.27,14.51c-8.21,3.39-16.68,3.85-23.84,1.69
		c-7.42-2.24-13.43-7.21-16.5-14.6c-0.83-2.01-1.38-4.14-1.65-6.35c-0.72-5.79,0.55-11.97,3.49-17.31
		c2.97-5.38,7.63-9.93,13.69-12.44c2.18-0.9,4.55-1.54,7.09-1.86l5.09-0.62l-3.85,10.8c-1.56,0.19-3.03,0.59-4.4,1.16
		c-3.82,1.58-6.77,4.48-8.66,7.9c-1.91,3.46-2.73,7.43-2.28,11.13c0.16,1.25,0.47,2.48,0.95,3.65c1.83,4.4,5.47,7.38,9.98,8.74
		c4.96,1.5,10.98,1.11,16.97-1.36C114.99,126.66,148.99,117.7,149.08,117.67"/>
</g>
</svg>
